<svg width="1293" height="128" viewBox="0 0 1293 128" fill="none" xmlns="http://www.w3.org/2000/svg">
<rect width="1293" height="128" rx="20" fill="#252B33"/>
<path d="M30.453 63.5L42 75.047L53.547 63.5L42 51.953L30.453 63.5ZM1253.55 63.5L1242 51.953L1230.45 63.5L1242 75.047L1253.55 63.5ZM42 65.5H1242V61.5H42V65.5Z" fill="#FFD369"/>
<rect x="124.5" y="53.5" width="21" height="21" rx="10.5" fill="#C4C4C4" stroke="#FFD369"/>
<rect x="267" y="53" width="22" height="22" rx="11" fill="#C4C4C4"/>
<rect x="743" y="53" width="22" height="22" rx="11" fill="#C4C4C4"/>
<rect x="775" y="53" width="22" height="22" rx="11" fill="#C4C4C4"/>
<rect x="576" y="53" width="22" height="22" rx="11" fill="#C4C4C4"/>
<rect x="443" y="53" width="22" height="22" rx="11" fill="#C4C4C4"/>
<rect x="1025" y="53" width="22" height="22" rx="11" fill="#C4C4C4"/>
<rect x="1134" y="53" width="22" height="22" rx="11" fill="#C4C4C4"/>
<rect x="76" y="16" width="118" height="30" rx="15" fill="#32353D"/>
<rect x="219" y="16" width="118" height="30" rx="15" fill="#32353D"/>
<rect x="395" y="16" width="118" height="30" rx="15" fill="#32353D"/>
<rect x="443" y="82" width="155" height="21" rx="10.5" fill="#32353D"/>
<rect x="528" y="16" width="118" height="30" rx="15" fill="#32353D"/>
<rect x="686" y="16" width="91" height="30" rx="15" fill="#32353D"/>
<rect x="986" y="16" width="91" height="30" rx="15" fill="#32353D"/>
<rect x="1025" y="82" width="131" height="24" rx="12" fill="#32353D"/>
<rect x="1098" y="16" width="91" height="30" rx="15" fill="#32353D"/>
<rect x="782" y="16" width="39" height="30" rx="15" fill="#32353D"/>
<path d="M90.3984 36H83.5488V34.5586C84.0723 34.1797 84.5957 33.7773 85.1191 33.3516C85.6465 32.9258 86.0684 32.5586 86.3848 32.25C86.8574 31.793 87.1934 31.3945 87.3926 31.0547C87.5918 30.7148 87.6914 30.3789 87.6914 30.0469C87.6914 29.6484 87.5625 29.3418 87.3047 29.127C87.0508 28.9082 86.6836 28.7988 86.2031 28.7988C85.8438 28.7988 85.4648 28.873 85.0664 29.0215C84.6719 29.1699 84.3047 29.3594 83.9648 29.5898H83.7773V27.6504C84.0547 27.5293 84.4629 27.4082 85.002 27.2871C85.5449 27.166 86.0879 27.1055 86.6309 27.1055C87.7246 27.1055 88.5586 27.3359 89.1328 27.7969C89.707 28.2539 89.9941 28.9023 89.9941 29.7422C89.9941 30.293 89.8555 30.8164 89.5781 31.3125C89.3047 31.8086 88.8848 32.3203 88.3184 32.8477C87.9629 33.1758 87.6055 33.4785 87.2461 33.7559C86.8867 34.0293 86.6309 34.2207 86.4785 34.3301H90.3984V36ZM98.8711 31.6348C98.8711 32.3691 98.8047 33.0273 98.6719 33.6094C98.5391 34.1875 98.332 34.6621 98.0508 35.0332C97.7617 35.4121 97.3906 35.6992 96.9375 35.8945C96.4844 36.0859 95.9258 36.1816 95.2617 36.1816C94.6094 36.1816 94.0527 36.084 93.5918 35.8887C93.1309 35.6934 92.7578 35.4043 92.4727 35.0215C92.1836 34.6387 91.9746 34.1641 91.8457 33.5977C91.7168 33.0273 91.6523 32.375 91.6523 31.6406C91.6523 30.8828 91.7188 30.2246 91.8516 29.666C91.9844 29.1074 92.1953 28.6348 92.4844 28.248C92.7734 27.8652 93.1484 27.5781 93.6094 27.3867C94.0703 27.1953 94.6211 27.0996 95.2617 27.0996C95.9297 27.0996 96.4902 27.1992 96.9434 27.3984C97.3965 27.5938 97.7676 27.8867 98.0566 28.2773C98.3418 28.6602 98.5488 29.1328 98.6777 29.6953C98.8066 30.2539 98.8711 30.9004 98.8711 31.6348ZM96.6035 31.6348C96.6035 30.5801 96.5 29.8301 96.293 29.3848C96.0859 28.9355 95.7422 28.7109 95.2617 28.7109C94.7812 28.7109 94.4375 28.9355 94.2305 29.3848C94.0234 29.8301 93.9199 30.584 93.9199 31.6465C93.9199 32.6816 94.0254 33.4277 94.2363 33.8848C94.4473 34.3418 94.7891 34.5703 95.2617 34.5703C95.7344 34.5703 96.0762 34.3418 96.2871 33.8848C96.498 33.4277 96.6035 32.6777 96.6035 31.6348ZM107.402 31.6348C107.402 32.3691 107.336 33.0273 107.203 33.6094C107.07 34.1875 106.863 34.6621 106.582 35.0332C106.293 35.4121 105.922 35.6992 105.469 35.8945C105.016 36.0859 104.457 36.1816 103.793 36.1816C103.141 36.1816 102.584 36.084 102.123 35.8887C101.662 35.6934 101.289 35.4043 101.004 35.0215C100.715 34.6387 100.506 34.1641 100.377 33.5977C100.248 33.0273 100.184 32.375 100.184 31.6406C100.184 30.8828 100.25 30.2246 100.383 29.666C100.516 29.1074 100.727 28.6348 101.016 28.248C101.305 27.8652 101.68 27.5781 102.141 27.3867C102.602 27.1953 103.152 27.0996 103.793 27.0996C104.461 27.0996 105.021 27.1992 105.475 27.3984C105.928 27.5938 106.299 27.8867 106.588 28.2773C106.873 28.6602 107.08 29.1328 107.209 29.6953C107.338 30.2539 107.402 30.9004 107.402 31.6348ZM105.135 31.6348C105.135 30.5801 105.031 29.8301 104.824 29.3848C104.617 28.9355 104.273 28.7109 103.793 28.7109C103.312 28.7109 102.969 28.9355 102.762 29.3848C102.555 29.8301 102.451 30.584 102.451 31.6465C102.451 32.6816 102.557 33.4277 102.768 33.8848C102.979 34.3418 103.32 34.5703 103.793 34.5703C104.266 34.5703 104.607 34.3418 104.818 33.8848C105.029 33.4277 105.135 32.6777 105.135 31.6348ZM115.934 31.6348C115.934 32.3691 115.867 33.0273 115.734 33.6094C115.602 34.1875 115.395 34.6621 115.113 35.0332C114.824 35.4121 114.453 35.6992 114 35.8945C113.547 36.0859 112.988 36.1816 112.324 36.1816C111.672 36.1816 111.115 36.084 110.654 35.8887C110.193 35.6934 109.82 35.4043 109.535 35.0215C109.246 34.6387 109.037 34.1641 108.908 33.5977C108.779 33.0273 108.715 32.375 108.715 31.6406C108.715 30.8828 108.781 30.2246 108.914 29.666C109.047 29.1074 109.258 28.6348 109.547 28.248C109.836 27.8652 110.211 27.5781 110.672 27.3867C111.133 27.1953 111.684 27.0996 112.324 27.0996C112.992 27.0996 113.553 27.1992 114.006 27.3984C114.459 27.5938 114.83 27.8867 115.119 28.2773C115.404 28.6602 115.611 29.1328 115.74 29.6953C115.869 30.2539 115.934 30.9004 115.934 31.6348ZM113.666 31.6348C113.666 30.5801 113.562 29.8301 113.355 29.3848C113.148 28.9355 112.805 28.7109 112.324 28.7109C111.844 28.7109 111.5 28.9355 111.293 29.3848C111.086 29.8301 110.982 30.584 110.982 31.6465C110.982 32.6816 111.088 33.4277 111.299 33.8848C111.51 34.3418 111.852 34.5703 112.324 34.5703C112.797 34.5703 113.139 34.3418 113.35 33.8848C113.561 33.4277 113.666 32.6777 113.666 31.6348ZM128.555 32.6191C128.555 33.1621 128.471 33.6562 128.303 34.1016C128.139 34.5469 127.922 34.9141 127.652 35.2031C127.371 35.5078 127.053 35.7383 126.697 35.8945C126.342 36.0508 125.961 36.1289 125.555 36.1289C125.18 36.1289 124.861 36.0879 124.6 36.0059C124.338 35.9277 124.07 35.8164 123.797 35.6719V38.4141H121.688V29.4199H123.797V30.1055C124.121 29.8477 124.451 29.6387 124.787 29.4785C125.127 29.3184 125.518 29.2383 125.959 29.2383C126.779 29.2383 127.416 29.5391 127.869 30.1406C128.326 30.7422 128.555 31.5684 128.555 32.6191ZM126.381 32.6602C126.381 32.0195 126.271 31.5547 126.053 31.2656C125.834 30.9766 125.488 30.832 125.016 30.832C124.816 30.832 124.611 30.8633 124.4 30.9258C124.189 30.9844 123.988 31.0703 123.797 31.1836V34.4941C123.938 34.5488 124.088 34.584 124.248 34.5996C124.408 34.6152 124.566 34.623 124.723 34.623C125.281 34.623 125.697 34.4609 125.971 34.1367C126.244 33.8086 126.381 33.3164 126.381 32.6602ZM132.346 36H130.154V33.6973H132.346V36ZM145.377 37.6289H143.496V35.9766H139.617V37.6289H137.736V34.5293H138.281C138.578 33.9121 138.814 33.1582 138.99 32.2676C139.17 31.373 139.26 30.4238 139.26 29.4199H144.697V34.5293H145.377V37.6289ZM142.6 34.5293V30.8906H141.152C141.086 31.6133 140.973 32.2852 140.812 32.9062C140.656 33.5273 140.467 34.0684 140.244 34.5293H142.6ZM153.539 32.7129C153.539 33.7949 153.223 34.6484 152.59 35.2734C151.961 35.8945 151.076 36.2051 149.936 36.2051C148.795 36.2051 147.908 35.8945 147.275 35.2734C146.646 34.6484 146.332 33.7949 146.332 32.7129C146.332 31.623 146.648 30.7676 147.281 30.1465C147.918 29.5254 148.803 29.2148 149.936 29.2148C151.084 29.2148 151.971 29.5273 152.596 30.1523C153.225 30.7773 153.539 31.6309 153.539 32.7129ZM150.943 34.3125C151.08 34.1445 151.182 33.9434 151.248 33.709C151.318 33.4707 151.354 33.1426 151.354 32.7246C151.354 32.3379 151.318 32.0137 151.248 31.752C151.178 31.4902 151.08 31.2812 150.955 31.125C150.83 30.9648 150.68 30.8516 150.504 30.7852C150.328 30.7188 150.139 30.6855 149.936 30.6855C149.732 30.6855 149.551 30.7129 149.391 30.7676C149.234 30.8223 149.084 30.9316 148.939 31.0957C148.811 31.248 148.707 31.457 148.629 31.7227C148.555 31.9883 148.518 32.3223 148.518 32.7246C148.518 33.084 148.551 33.3965 148.617 33.6621C148.684 33.9238 148.781 34.1348 148.91 34.2949C149.035 34.4473 149.184 34.5586 149.355 34.6289C149.531 34.6992 149.73 34.7344 149.953 34.7344C150.145 34.7344 150.326 34.7031 150.498 34.6406C150.674 34.5742 150.822 34.4648 150.943 34.3125ZM165.797 36H163.688V33.1934H161.262V36H159.152V29.4199H161.262V31.6875H163.688V29.4199H165.797V36ZM170.057 36H167.865V33.6973H170.057V36ZM182.707 33.0996H177.879C177.91 33.6152 178.105 34.0098 178.465 34.2832C178.828 34.5566 179.361 34.6934 180.064 34.6934C180.51 34.6934 180.941 34.6133 181.359 34.4531C181.777 34.293 182.107 34.1211 182.35 33.9375H182.584V35.6309C182.107 35.8223 181.658 35.9609 181.236 36.0469C180.814 36.1328 180.348 36.1758 179.836 36.1758C178.516 36.1758 177.504 35.8789 176.801 35.2852C176.098 34.6914 175.746 33.8457 175.746 32.748C175.746 31.6621 176.078 30.8027 176.742 30.1699C177.41 29.5332 178.324 29.2148 179.484 29.2148C180.555 29.2148 181.359 29.4863 181.898 30.0293C182.438 30.5684 182.707 31.3457 182.707 32.3613V33.0996ZM180.609 31.8633C180.598 31.4219 180.488 31.0898 180.281 30.8672C180.074 30.6445 179.752 30.5332 179.314 30.5332C178.908 30.5332 178.574 30.6387 178.312 30.8496C178.051 31.0605 177.904 31.3984 177.873 31.8633H180.609ZM186.463 36H184.271V33.6973H186.463V36Z" fill="#EEEEEE"/>
<path d="M232.848 36H227.023V34.4766H228.863V29.8652H227.023V28.4414C227.305 28.4414 227.574 28.4258 227.832 28.3945C228.09 28.3594 228.305 28.3008 228.477 28.2188C228.68 28.1211 228.832 27.9941 228.934 27.8379C229.035 27.6816 229.094 27.4863 229.109 27.252H231.049V34.4766H232.848V36ZM241.871 31.6348C241.871 32.3691 241.805 33.0273 241.672 33.6094C241.539 34.1875 241.332 34.6621 241.051 35.0332C240.762 35.4121 240.391 35.6992 239.938 35.8945C239.484 36.0859 238.926 36.1816 238.262 36.1816C237.609 36.1816 237.053 36.084 236.592 35.8887C236.131 35.6934 235.758 35.4043 235.473 35.0215C235.184 34.6387 234.975 34.1641 234.846 33.5977C234.717 33.0273 234.652 32.375 234.652 31.6406C234.652 30.8828 234.719 30.2246 234.852 29.666C234.984 29.1074 235.195 28.6348 235.484 28.248C235.773 27.8652 236.148 27.5781 236.609 27.3867C237.07 27.1953 237.621 27.0996 238.262 27.0996C238.93 27.0996 239.49 27.1992 239.943 27.3984C240.396 27.5938 240.768 27.8867 241.057 28.2773C241.342 28.6602 241.549 29.1328 241.678 29.6953C241.807 30.2539 241.871 30.9004 241.871 31.6348ZM239.604 31.6348C239.604 30.5801 239.5 29.8301 239.293 29.3848C239.086 28.9355 238.742 28.7109 238.262 28.7109C237.781 28.7109 237.438 28.9355 237.23 29.3848C237.023 29.8301 236.92 30.584 236.92 31.6465C236.92 32.6816 237.025 33.4277 237.236 33.8848C237.447 34.3418 237.789 34.5703 238.262 34.5703C238.734 34.5703 239.076 34.3418 239.287 33.8848C239.498 33.4277 239.604 32.6777 239.604 31.6348ZM250.402 31.6348C250.402 32.3691 250.336 33.0273 250.203 33.6094C250.07 34.1875 249.863 34.6621 249.582 35.0332C249.293 35.4121 248.922 35.6992 248.469 35.8945C248.016 36.0859 247.457 36.1816 246.793 36.1816C246.141 36.1816 245.584 36.084 245.123 35.8887C244.662 35.6934 244.289 35.4043 244.004 35.0215C243.715 34.6387 243.506 34.1641 243.377 33.5977C243.248 33.0273 243.184 32.375 243.184 31.6406C243.184 30.8828 243.25 30.2246 243.383 29.666C243.516 29.1074 243.727 28.6348 244.016 28.248C244.305 27.8652 244.68 27.5781 245.141 27.3867C245.602 27.1953 246.152 27.0996 246.793 27.0996C247.461 27.0996 248.021 27.1992 248.475 27.3984C248.928 27.5938 249.299 27.8867 249.588 28.2773C249.873 28.6602 250.08 29.1328 250.209 29.6953C250.338 30.2539 250.402 30.9004 250.402 31.6348ZM248.135 31.6348C248.135 30.5801 248.031 29.8301 247.824 29.3848C247.617 28.9355 247.273 28.7109 246.793 28.7109C246.312 28.7109 245.969 28.9355 245.762 29.3848C245.555 29.8301 245.451 30.584 245.451 31.6465C245.451 32.6816 245.557 33.4277 245.768 33.8848C245.979 34.3418 246.32 34.5703 246.793 34.5703C247.266 34.5703 247.607 34.3418 247.818 33.8848C248.029 33.4277 248.135 32.6777 248.135 31.6348ZM258.934 31.6348C258.934 32.3691 258.867 33.0273 258.734 33.6094C258.602 34.1875 258.395 34.6621 258.113 35.0332C257.824 35.4121 257.453 35.6992 257 35.8945C256.547 36.0859 255.988 36.1816 255.324 36.1816C254.672 36.1816 254.115 36.084 253.654 35.8887C253.193 35.6934 252.82 35.4043 252.535 35.0215C252.246 34.6387 252.037 34.1641 251.908 33.5977C251.779 33.0273 251.715 32.375 251.715 31.6406C251.715 30.8828 251.781 30.2246 251.914 29.666C252.047 29.1074 252.258 28.6348 252.547 28.248C252.836 27.8652 253.211 27.5781 253.672 27.3867C254.133 27.1953 254.684 27.0996 255.324 27.0996C255.992 27.0996 256.553 27.1992 257.006 27.3984C257.459 27.5938 257.83 27.8867 258.119 28.2773C258.404 28.6602 258.611 29.1328 258.74 29.6953C258.869 30.2539 258.934 30.9004 258.934 31.6348ZM256.666 31.6348C256.666 30.5801 256.562 29.8301 256.355 29.3848C256.148 28.9355 255.805 28.7109 255.324 28.7109C254.844 28.7109 254.5 28.9355 254.293 29.3848C254.086 29.8301 253.982 30.584 253.982 31.6465C253.982 32.6816 254.088 33.4277 254.299 33.8848C254.51 34.3418 254.852 34.5703 255.324 34.5703C255.797 34.5703 256.139 34.3418 256.35 33.8848C256.561 33.4277 256.666 32.6777 256.666 31.6348ZM271.555 32.6191C271.555 33.1621 271.471 33.6562 271.303 34.1016C271.139 34.5469 270.922 34.9141 270.652 35.2031C270.371 35.5078 270.053 35.7383 269.697 35.8945C269.342 36.0508 268.961 36.1289 268.555 36.1289C268.18 36.1289 267.861 36.0879 267.6 36.0059C267.338 35.9277 267.07 35.8164 266.797 35.6719V38.4141H264.688V29.4199H266.797V30.1055C267.121 29.8477 267.451 29.6387 267.787 29.4785C268.127 29.3184 268.518 29.2383 268.959 29.2383C269.779 29.2383 270.416 29.5391 270.869 30.1406C271.326 30.7422 271.555 31.5684 271.555 32.6191ZM269.381 32.6602C269.381 32.0195 269.271 31.5547 269.053 31.2656C268.834 30.9766 268.488 30.832 268.016 30.832C267.816 30.832 267.611 30.8633 267.4 30.9258C267.189 30.9844 266.988 31.0703 266.797 31.1836V34.4941C266.938 34.5488 267.088 34.584 267.248 34.5996C267.408 34.6152 267.566 34.623 267.723 34.623C268.281 34.623 268.697 34.4609 268.971 34.1367C269.244 33.8086 269.381 33.3164 269.381 32.6602ZM275.346 36H273.154V33.6973H275.346V36ZM288.377 37.6289H286.496V35.9766H282.617V37.6289H280.736V34.5293H281.281C281.578 33.9121 281.814 33.1582 281.99 32.2676C282.17 31.373 282.26 30.4238 282.26 29.4199H287.697V34.5293H288.377V37.6289ZM285.6 34.5293V30.8906H284.152C284.086 31.6133 283.973 32.2852 283.812 32.9062C283.656 33.5273 283.467 34.0684 283.244 34.5293H285.6ZM296.539 32.7129C296.539 33.7949 296.223 34.6484 295.59 35.2734C294.961 35.8945 294.076 36.2051 292.936 36.2051C291.795 36.2051 290.908 35.8945 290.275 35.2734C289.646 34.6484 289.332 33.7949 289.332 32.7129C289.332 31.623 289.648 30.7676 290.281 30.1465C290.918 29.5254 291.803 29.2148 292.936 29.2148C294.084 29.2148 294.971 29.5273 295.596 30.1523C296.225 30.7773 296.539 31.6309 296.539 32.7129ZM293.943 34.3125C294.08 34.1445 294.182 33.9434 294.248 33.709C294.318 33.4707 294.354 33.1426 294.354 32.7246C294.354 32.3379 294.318 32.0137 294.248 31.752C294.178 31.4902 294.08 31.2812 293.955 31.125C293.83 30.9648 293.68 30.8516 293.504 30.7852C293.328 30.7188 293.139 30.6855 292.936 30.6855C292.732 30.6855 292.551 30.7129 292.391 30.7676C292.234 30.8223 292.084 30.9316 291.939 31.0957C291.811 31.248 291.707 31.457 291.629 31.7227C291.555 31.9883 291.518 32.3223 291.518 32.7246C291.518 33.084 291.551 33.3965 291.617 33.6621C291.684 33.9238 291.781 34.1348 291.91 34.2949C292.035 34.4473 292.184 34.5586 292.355 34.6289C292.531 34.6992 292.73 34.7344 292.953 34.7344C293.145 34.7344 293.326 34.7031 293.498 34.6406C293.674 34.5742 293.822 34.4648 293.943 34.3125ZM308.797 36H306.688V33.1934H304.262V36H302.152V29.4199H304.262V31.6875H306.688V29.4199H308.797V36ZM313.057 36H310.865V33.6973H313.057V36ZM325.707 33.0996H320.879C320.91 33.6152 321.105 34.0098 321.465 34.2832C321.828 34.5566 322.361 34.6934 323.064 34.6934C323.51 34.6934 323.941 34.6133 324.359 34.4531C324.777 34.293 325.107 34.1211 325.35 33.9375H325.584V35.6309C325.107 35.8223 324.658 35.9609 324.236 36.0469C323.814 36.1328 323.348 36.1758 322.836 36.1758C321.516 36.1758 320.504 35.8789 319.801 35.2852C319.098 34.6914 318.746 33.8457 318.746 32.748C318.746 31.6621 319.078 30.8027 319.742 30.1699C320.41 29.5332 321.324 29.2148 322.484 29.2148C323.555 29.2148 324.359 29.4863 324.898 30.0293C325.438 30.5684 325.707 31.3457 325.707 32.3613V33.0996ZM323.609 31.8633C323.598 31.4219 323.488 31.0898 323.281 30.8672C323.074 30.6445 322.752 30.5332 322.314 30.5332C321.908 30.5332 321.574 30.6387 321.312 30.8496C321.051 31.0605 320.904 31.3984 320.873 31.8633H323.609ZM329.463 36H327.271V33.6973H329.463V36Z" fill="#EEEEEE"/>
<path d="M412.809 31.9102C413 32.0742 413.152 32.2656 413.266 32.4844C413.379 32.7031 413.436 32.9941 413.436 33.3574C413.436 33.7676 413.354 34.1504 413.189 34.5059C413.029 34.8613 412.781 35.166 412.445 35.4199C412.117 35.666 411.73 35.8555 411.285 35.9883C410.844 36.1172 410.307 36.1816 409.674 36.1816C408.951 36.1816 408.33 36.125 407.811 36.0117C407.295 35.8984 406.875 35.7715 406.551 35.6309V33.7148H406.779C407.115 33.918 407.516 34.0938 407.98 34.2422C408.449 34.3906 408.877 34.4648 409.264 34.4648C409.49 34.4648 409.736 34.4473 410.002 34.4121C410.268 34.373 410.492 34.291 410.676 34.166C410.82 34.0684 410.936 33.9512 411.021 33.8145C411.107 33.6738 411.15 33.4727 411.15 33.2109C411.15 32.957 411.092 32.7617 410.975 32.625C410.857 32.4844 410.703 32.3848 410.512 32.3262C410.32 32.2637 410.09 32.2305 409.82 32.2266C409.551 32.2188 409.301 32.2148 409.07 32.2148H408.59V30.6562H409.088C409.393 30.6562 409.662 30.6465 409.896 30.627C410.131 30.6074 410.33 30.5625 410.494 30.4922C410.666 30.418 410.795 30.3203 410.881 30.1992C410.967 30.0742 411.01 29.8926 411.01 29.6543C411.01 29.4785 410.965 29.3379 410.875 29.2324C410.785 29.123 410.672 29.0371 410.535 28.9746C410.383 28.9043 410.203 28.8574 409.996 28.834C409.789 28.8105 409.611 28.7988 409.463 28.7988C409.096 28.7988 408.697 28.8633 408.268 28.9922C407.838 29.1172 407.422 29.2988 407.02 29.5371H406.803V27.6445C407.123 27.5156 407.559 27.3926 408.109 27.2754C408.66 27.1543 409.219 27.0938 409.785 27.0938C410.336 27.0938 410.818 27.1426 411.232 27.2402C411.646 27.334 411.988 27.4609 412.258 27.6211C412.578 27.8125 412.816 28.0449 412.973 28.3184C413.129 28.5918 413.207 28.9121 413.207 29.2793C413.207 29.7637 413.057 30.1973 412.756 30.5801C412.455 30.959 412.059 31.2012 411.566 31.3066V31.3887C411.766 31.416 411.977 31.4707 412.199 31.5527C412.422 31.6348 412.625 31.7539 412.809 31.9102ZM422.137 31.6348C422.137 32.3691 422.07 33.0273 421.938 33.6094C421.805 34.1875 421.598 34.6621 421.316 35.0332C421.027 35.4121 420.656 35.6992 420.203 35.8945C419.75 36.0859 419.191 36.1816 418.527 36.1816C417.875 36.1816 417.318 36.084 416.857 35.8887C416.396 35.6934 416.023 35.4043 415.738 35.0215C415.449 34.6387 415.24 34.1641 415.111 33.5977C414.982 33.0273 414.918 32.375 414.918 31.6406C414.918 30.8828 414.984 30.2246 415.117 29.666C415.25 29.1074 415.461 28.6348 415.75 28.248C416.039 27.8652 416.414 27.5781 416.875 27.3867C417.336 27.1953 417.887 27.0996 418.527 27.0996C419.195 27.0996 419.756 27.1992 420.209 27.3984C420.662 27.5938 421.033 27.8867 421.322 28.2773C421.607 28.6602 421.814 29.1328 421.943 29.6953C422.072 30.2539 422.137 30.9004 422.137 31.6348ZM419.869 31.6348C419.869 30.5801 419.766 29.8301 419.559 29.3848C419.352 28.9355 419.008 28.7109 418.527 28.7109C418.047 28.7109 417.703 28.9355 417.496 29.3848C417.289 29.8301 417.186 30.584 417.186 31.6465C417.186 32.6816 417.291 33.4277 417.502 33.8848C417.713 34.3418 418.055 34.5703 418.527 34.5703C419 34.5703 419.342 34.3418 419.553 33.8848C419.764 33.4277 419.869 32.6777 419.869 31.6348ZM430.668 31.6348C430.668 32.3691 430.602 33.0273 430.469 33.6094C430.336 34.1875 430.129 34.6621 429.848 35.0332C429.559 35.4121 429.188 35.6992 428.734 35.8945C428.281 36.0859 427.723 36.1816 427.059 36.1816C426.406 36.1816 425.85 36.084 425.389 35.8887C424.928 35.6934 424.555 35.4043 424.27 35.0215C423.98 34.6387 423.771 34.1641 423.643 33.5977C423.514 33.0273 423.449 32.375 423.449 31.6406C423.449 30.8828 423.516 30.2246 423.648 29.666C423.781 29.1074 423.992 28.6348 424.281 28.248C424.57 27.8652 424.945 27.5781 425.406 27.3867C425.867 27.1953 426.418 27.0996 427.059 27.0996C427.727 27.0996 428.287 27.1992 428.74 27.3984C429.193 27.5938 429.564 27.8867 429.854 28.2773C430.139 28.6602 430.346 29.1328 430.475 29.6953C430.604 30.2539 430.668 30.9004 430.668 31.6348ZM428.4 31.6348C428.4 30.5801 428.297 29.8301 428.09 29.3848C427.883 28.9355 427.539 28.7109 427.059 28.7109C426.578 28.7109 426.234 28.9355 426.027 29.3848C425.82 29.8301 425.717 30.584 425.717 31.6465C425.717 32.6816 425.822 33.4277 426.033 33.8848C426.244 34.3418 426.586 34.5703 427.059 34.5703C427.531 34.5703 427.873 34.3418 428.084 33.8848C428.295 33.4277 428.4 32.6777 428.4 31.6348ZM443.289 32.6191C443.289 33.1621 443.205 33.6562 443.037 34.1016C442.873 34.5469 442.656 34.9141 442.387 35.2031C442.105 35.5078 441.787 35.7383 441.432 35.8945C441.076 36.0508 440.695 36.1289 440.289 36.1289C439.914 36.1289 439.596 36.0879 439.334 36.0059C439.072 35.9277 438.805 35.8164 438.531 35.6719V38.4141H436.422V29.4199H438.531V30.1055C438.855 29.8477 439.186 29.6387 439.521 29.4785C439.861 29.3184 440.252 29.2383 440.693 29.2383C441.514 29.2383 442.15 29.5391 442.604 30.1406C443.061 30.7422 443.289 31.5684 443.289 32.6191ZM441.115 32.6602C441.115 32.0195 441.006 31.5547 440.787 31.2656C440.568 30.9766 440.223 30.832 439.75 30.832C439.551 30.832 439.346 30.8633 439.135 30.9258C438.924 30.9844 438.723 31.0703 438.531 31.1836V34.4941C438.672 34.5488 438.822 34.584 438.982 34.5996C439.143 34.6152 439.301 34.623 439.457 34.623C440.016 34.623 440.432 34.4609 440.705 34.1367C440.979 33.8086 441.115 33.3164 441.115 32.6602ZM447.08 36H444.889V33.6973H447.08V36ZM460.111 37.6289H458.23V35.9766H454.352V37.6289H452.471V34.5293H453.016C453.312 33.9121 453.549 33.1582 453.725 32.2676C453.904 31.373 453.994 30.4238 453.994 29.4199H459.432V34.5293H460.111V37.6289ZM457.334 34.5293V30.8906H455.887C455.82 31.6133 455.707 32.2852 455.547 32.9062C455.391 33.5273 455.201 34.0684 454.979 34.5293H457.334ZM468.273 32.7129C468.273 33.7949 467.957 34.6484 467.324 35.2734C466.695 35.8945 465.811 36.2051 464.67 36.2051C463.529 36.2051 462.643 35.8945 462.01 35.2734C461.381 34.6484 461.066 33.7949 461.066 32.7129C461.066 31.623 461.383 30.7676 462.016 30.1465C462.652 29.5254 463.537 29.2148 464.67 29.2148C465.818 29.2148 466.705 29.5273 467.33 30.1523C467.959 30.7773 468.273 31.6309 468.273 32.7129ZM465.678 34.3125C465.814 34.1445 465.916 33.9434 465.982 33.709C466.053 33.4707 466.088 33.1426 466.088 32.7246C466.088 32.3379 466.053 32.0137 465.982 31.752C465.912 31.4902 465.814 31.2812 465.689 31.125C465.564 30.9648 465.414 30.8516 465.238 30.7852C465.062 30.7188 464.873 30.6855 464.67 30.6855C464.467 30.6855 464.285 30.7129 464.125 30.7676C463.969 30.8223 463.818 30.9316 463.674 31.0957C463.545 31.248 463.441 31.457 463.363 31.7227C463.289 31.9883 463.252 32.3223 463.252 32.7246C463.252 33.084 463.285 33.3965 463.352 33.6621C463.418 33.9238 463.516 34.1348 463.645 34.2949C463.77 34.4473 463.918 34.5586 464.09 34.6289C464.266 34.6992 464.465 34.7344 464.688 34.7344C464.879 34.7344 465.061 34.7031 465.232 34.6406C465.408 34.5742 465.557 34.4648 465.678 34.3125ZM480.531 36H478.422V33.1934H475.996V36H473.887V29.4199H475.996V31.6875H478.422V29.4199H480.531V36ZM484.791 36H482.6V33.6973H484.791V36ZM497.441 33.0996H492.613C492.645 33.6152 492.84 34.0098 493.199 34.2832C493.562 34.5566 494.096 34.6934 494.799 34.6934C495.244 34.6934 495.676 34.6133 496.094 34.4531C496.512 34.293 496.842 34.1211 497.084 33.9375H497.318V35.6309C496.842 35.8223 496.393 35.9609 495.971 36.0469C495.549 36.1328 495.082 36.1758 494.57 36.1758C493.25 36.1758 492.238 35.8789 491.535 35.2852C490.832 34.6914 490.48 33.8457 490.48 32.748C490.48 31.6621 490.812 30.8027 491.477 30.1699C492.145 29.5332 493.059 29.2148 494.219 29.2148C495.289 29.2148 496.094 29.4863 496.633 30.0293C497.172 30.5684 497.441 31.3457 497.441 32.3613V33.0996ZM495.344 31.8633C495.332 31.4219 495.223 31.0898 495.016 30.8672C494.809 30.6445 494.486 30.5332 494.049 30.5332C493.643 30.5332 493.309 30.6387 493.047 30.8496C492.785 31.0605 492.639 31.3984 492.607 31.8633H495.344ZM501.197 36H499.006V33.6973H501.197V36Z" fill="#EEEEEE"/>
<path d="M480.475 97H475.365V95.4531H476.795V89.8223H475.365V88.2754H480.475V89.8223H479.045V95.4531H480.475V97ZM487.025 97H481.916V95.4531H483.346V89.8223H481.916V88.2754H487.025V89.8223H485.596V95.4531H487.025V97ZM493.576 97H488.467V95.4531H489.896V89.8223H488.467V88.2754H493.576V89.8223H492.146V95.4531H493.576V97ZM502.822 97.1758C502.248 97.1758 501.723 97.1074 501.246 96.9707C500.773 96.834 500.361 96.623 500.01 96.3379C499.662 96.0527 499.393 95.6934 499.201 95.2598C499.01 94.8262 498.914 94.3184 498.914 93.7363C498.914 93.123 499.016 92.5938 499.219 92.1484C499.426 91.7031 499.713 91.334 500.08 91.041C500.436 90.7637 500.846 90.5605 501.311 90.4316C501.775 90.3027 502.258 90.2383 502.758 90.2383C503.207 90.2383 503.621 90.2871 504 90.3848C504.379 90.4824 504.732 90.6094 505.061 90.7656V92.5645H504.762C504.68 92.4941 504.58 92.4121 504.463 92.3184C504.35 92.2246 504.209 92.1328 504.041 92.043C503.881 91.957 503.705 91.8867 503.514 91.832C503.322 91.7734 503.1 91.7441 502.846 91.7441C502.283 91.7441 501.85 91.9238 501.545 92.2832C501.244 92.6387 501.094 93.123 501.094 93.7363C501.094 94.3691 501.248 94.8496 501.557 95.1777C501.869 95.5059 502.311 95.6699 502.881 95.6699C503.146 95.6699 503.385 95.6406 503.596 95.582C503.811 95.5195 503.988 95.4473 504.129 95.3652C504.262 95.2871 504.379 95.2051 504.48 95.1191C504.582 95.0332 504.676 94.9492 504.762 94.8672H505.061V96.666C504.729 96.8223 504.381 96.9453 504.018 97.0352C503.658 97.1289 503.26 97.1758 502.822 97.1758ZM511.945 91.8496H509.848V97H507.738V91.8496H505.641V90.4199H511.945V91.8496ZM515.268 97H513.076V94.6973H515.268V97ZM528.299 98.6289H526.418V96.9766H522.539V98.6289H520.658V95.5293H521.203C521.5 94.9121 521.736 94.1582 521.912 93.2676C522.092 92.373 522.182 91.4238 522.182 90.4199H527.619V95.5293H528.299V98.6289ZM525.521 95.5293V91.8906H524.074C524.008 92.6133 523.895 93.2852 523.734 93.9062C523.578 94.5273 523.389 95.0684 523.166 95.5293H525.521ZM536.461 93.7129C536.461 94.7949 536.145 95.6484 535.512 96.2734C534.883 96.8945 533.998 97.2051 532.857 97.2051C531.717 97.2051 530.83 96.8945 530.197 96.2734C529.568 95.6484 529.254 94.7949 529.254 93.7129C529.254 92.623 529.57 91.7676 530.203 91.1465C530.84 90.5254 531.725 90.2148 532.857 90.2148C534.006 90.2148 534.893 90.5273 535.518 91.1523C536.146 91.7773 536.461 92.6309 536.461 93.7129ZM533.865 95.3125C534.002 95.1445 534.104 94.9434 534.17 94.709C534.24 94.4707 534.275 94.1426 534.275 93.7246C534.275 93.3379 534.24 93.0137 534.17 92.752C534.1 92.4902 534.002 92.2812 533.877 92.125C533.752 91.9648 533.602 91.8516 533.426 91.7852C533.25 91.7188 533.061 91.6855 532.857 91.6855C532.654 91.6855 532.473 91.7129 532.312 91.7676C532.156 91.8223 532.006 91.9316 531.861 92.0957C531.732 92.248 531.629 92.457 531.551 92.7227C531.477 92.9883 531.439 93.3223 531.439 93.7246C531.439 94.084 531.473 94.3965 531.539 94.6621C531.605 94.9238 531.703 95.1348 531.832 95.2949C531.957 95.4473 532.105 95.5586 532.277 95.6289C532.453 95.6992 532.652 95.7344 532.875 95.7344C533.066 95.7344 533.248 95.7031 533.42 95.6406C533.596 95.5742 533.744 95.4648 533.865 95.3125ZM548.719 97H546.609V94.1934H544.184V97H542.074V90.4199H544.184V92.6875H546.609V90.4199H548.719V97ZM552.979 97H550.787V94.6973H552.979V97ZM565.629 94.0996H560.801C560.832 94.6152 561.027 95.0098 561.387 95.2832C561.75 95.5566 562.283 95.6934 562.986 95.6934C563.432 95.6934 563.863 95.6133 564.281 95.4531C564.699 95.293 565.029 95.1211 565.271 94.9375H565.506V96.6309C565.029 96.8223 564.58 96.9609 564.158 97.0469C563.736 97.1328 563.27 97.1758 562.758 97.1758C561.438 97.1758 560.426 96.8789 559.723 96.2852C559.02 95.6914 558.668 94.8457 558.668 93.748C558.668 92.6621 559 91.8027 559.664 91.1699C560.332 90.5332 561.246 90.2148 562.406 90.2148C563.477 90.2148 564.281 90.4863 564.82 91.0293C565.359 91.5684 565.629 92.3457 565.629 93.3613V94.0996ZM563.531 92.8633C563.52 92.4219 563.41 92.0898 563.203 91.8672C562.996 91.6445 562.674 91.5332 562.236 91.5332C561.83 91.5332 561.496 91.6387 561.234 91.8496C560.973 92.0605 560.826 92.3984 560.795 92.8633H563.531ZM569.385 97H567.193V94.6973H569.385V97Z" fill="#EEEEEE"/>
<path d="M546.664 36H539.814V34.5586C540.338 34.1797 540.861 33.7773 541.385 33.3516C541.912 32.9258 542.334 32.5586 542.65 32.25C543.123 31.793 543.459 31.3945 543.658 31.0547C543.857 30.7148 543.957 30.3789 543.957 30.0469C543.957 29.6484 543.828 29.3418 543.57 29.127C543.316 28.9082 542.949 28.7988 542.469 28.7988C542.109 28.7988 541.73 28.873 541.332 29.0215C540.938 29.1699 540.57 29.3594 540.23 29.5898H540.043V27.6504C540.32 27.5293 540.729 27.4082 541.268 27.2871C541.811 27.166 542.354 27.1055 542.896 27.1055C543.99 27.1055 544.824 27.3359 545.398 27.7969C545.973 28.2539 546.26 28.9023 546.26 29.7422C546.26 30.293 546.121 30.8164 545.844 31.3125C545.57 31.8086 545.15 32.3203 544.584 32.8477C544.229 33.1758 543.871 33.4785 543.512 33.7559C543.152 34.0293 542.896 34.2207 542.744 34.3301H546.664V36ZM555.137 31.6348C555.137 32.3691 555.07 33.0273 554.938 33.6094C554.805 34.1875 554.598 34.6621 554.316 35.0332C554.027 35.4121 553.656 35.6992 553.203 35.8945C552.75 36.0859 552.191 36.1816 551.527 36.1816C550.875 36.1816 550.318 36.084 549.857 35.8887C549.396 35.6934 549.023 35.4043 548.738 35.0215C548.449 34.6387 548.24 34.1641 548.111 33.5977C547.982 33.0273 547.918 32.375 547.918 31.6406C547.918 30.8828 547.984 30.2246 548.117 29.666C548.25 29.1074 548.461 28.6348 548.75 28.248C549.039 27.8652 549.414 27.5781 549.875 27.3867C550.336 27.1953 550.887 27.0996 551.527 27.0996C552.195 27.0996 552.756 27.1992 553.209 27.3984C553.662 27.5938 554.033 27.8867 554.322 28.2773C554.607 28.6602 554.814 29.1328 554.943 29.6953C555.072 30.2539 555.137 30.9004 555.137 31.6348ZM552.869 31.6348C552.869 30.5801 552.766 29.8301 552.559 29.3848C552.352 28.9355 552.008 28.7109 551.527 28.7109C551.047 28.7109 550.703 28.9355 550.496 29.3848C550.289 29.8301 550.186 30.584 550.186 31.6465C550.186 32.6816 550.291 33.4277 550.502 33.8848C550.713 34.3418 551.055 34.5703 551.527 34.5703C552 34.5703 552.342 34.3418 552.553 33.8848C552.764 33.4277 552.869 32.6777 552.869 31.6348ZM563.176 36H557.352V34.4766H559.191V29.8652H557.352V28.4414C557.633 28.4414 557.902 28.4258 558.16 28.3945C558.418 28.3594 558.633 28.3008 558.805 28.2188C559.008 28.1211 559.16 27.9941 559.262 27.8379C559.363 27.6816 559.422 27.4863 559.438 27.252H561.377V34.4766H563.176V36ZM576.289 32.6191C576.289 33.1621 576.205 33.6562 576.037 34.1016C575.873 34.5469 575.656 34.9141 575.387 35.2031C575.105 35.5078 574.787 35.7383 574.432 35.8945C574.076 36.0508 573.695 36.1289 573.289 36.1289C572.914 36.1289 572.596 36.0879 572.334 36.0059C572.072 35.9277 571.805 35.8164 571.531 35.6719V38.4141H569.422V29.4199H571.531V30.1055C571.855 29.8477 572.186 29.6387 572.521 29.4785C572.861 29.3184 573.252 29.2383 573.693 29.2383C574.514 29.2383 575.15 29.5391 575.604 30.1406C576.061 30.7422 576.289 31.5684 576.289 32.6191ZM574.115 32.6602C574.115 32.0195 574.006 31.5547 573.787 31.2656C573.568 30.9766 573.223 30.832 572.75 30.832C572.551 30.832 572.346 30.8633 572.135 30.9258C571.924 30.9844 571.723 31.0703 571.531 31.1836V34.4941C571.672 34.5488 571.822 34.584 571.982 34.5996C572.143 34.6152 572.301 34.623 572.457 34.623C573.016 34.623 573.432 34.4609 573.705 34.1367C573.979 33.8086 574.115 33.3164 574.115 32.6602ZM580.08 36H577.889V33.6973H580.08V36ZM593.111 37.6289H591.23V35.9766H587.352V37.6289H585.471V34.5293H586.016C586.312 33.9121 586.549 33.1582 586.725 32.2676C586.904 31.373 586.994 30.4238 586.994 29.4199H592.432V34.5293H593.111V37.6289ZM590.334 34.5293V30.8906H588.887C588.82 31.6133 588.707 32.2852 588.547 32.9062C588.391 33.5273 588.201 34.0684 587.979 34.5293H590.334ZM601.273 32.7129C601.273 33.7949 600.957 34.6484 600.324 35.2734C599.695 35.8945 598.811 36.2051 597.67 36.2051C596.529 36.2051 595.643 35.8945 595.01 35.2734C594.381 34.6484 594.066 33.7949 594.066 32.7129C594.066 31.623 594.383 30.7676 595.016 30.1465C595.652 29.5254 596.537 29.2148 597.67 29.2148C598.818 29.2148 599.705 29.5273 600.33 30.1523C600.959 30.7773 601.273 31.6309 601.273 32.7129ZM598.678 34.3125C598.814 34.1445 598.916 33.9434 598.982 33.709C599.053 33.4707 599.088 33.1426 599.088 32.7246C599.088 32.3379 599.053 32.0137 598.982 31.752C598.912 31.4902 598.814 31.2812 598.689 31.125C598.564 30.9648 598.414 30.8516 598.238 30.7852C598.062 30.7188 597.873 30.6855 597.67 30.6855C597.467 30.6855 597.285 30.7129 597.125 30.7676C596.969 30.8223 596.818 30.9316 596.674 31.0957C596.545 31.248 596.441 31.457 596.363 31.7227C596.289 31.9883 596.252 32.3223 596.252 32.7246C596.252 33.084 596.285 33.3965 596.352 33.6621C596.418 33.9238 596.516 34.1348 596.645 34.2949C596.77 34.4473 596.918 34.5586 597.09 34.6289C597.266 34.6992 597.465 34.7344 597.688 34.7344C597.879 34.7344 598.061 34.7031 598.232 34.6406C598.408 34.5742 598.557 34.4648 598.678 34.3125ZM613.531 36H611.422V33.1934H608.996V36H606.887V29.4199H608.996V31.6875H611.422V29.4199H613.531V36ZM617.791 36H615.6V33.6973H617.791V36ZM630.441 33.0996H625.613C625.645 33.6152 625.84 34.0098 626.199 34.2832C626.562 34.5566 627.096 34.6934 627.799 34.6934C628.244 34.6934 628.676 34.6133 629.094 34.4531C629.512 34.293 629.842 34.1211 630.084 33.9375H630.318V35.6309C629.842 35.8223 629.393 35.9609 628.971 36.0469C628.549 36.1328 628.082 36.1758 627.57 36.1758C626.25 36.1758 625.238 35.8789 624.535 35.2852C623.832 34.6914 623.48 33.8457 623.48 32.748C623.48 31.6621 623.812 30.8027 624.477 30.1699C625.145 29.5332 626.059 29.2148 627.219 29.2148C628.289 29.2148 629.094 29.4863 629.633 30.0293C630.172 30.5684 630.441 31.3457 630.441 32.3613V33.0996ZM628.344 31.8633C628.332 31.4219 628.223 31.0898 628.016 30.8672C627.809 30.6445 627.486 30.5332 627.049 30.5332C626.643 30.5332 626.309 30.6387 626.047 30.8496C625.785 31.0605 625.639 31.3984 625.607 31.8633H628.344ZM634.197 36H632.006V33.6973H634.197V36Z" fill="#EEEEEE"/>
<path d="M700.145 36H694.32V34.4766H696.16V29.8652H694.32V28.4414C694.602 28.4414 694.871 28.4258 695.129 28.3945C695.387 28.3594 695.602 28.3008 695.773 28.2188C695.977 28.1211 696.129 27.9941 696.23 27.8379C696.332 27.6816 696.391 27.4863 696.406 27.252H698.346V34.4766H700.145V36ZM713.258 32.6191C713.258 33.1621 713.174 33.6562 713.006 34.1016C712.842 34.5469 712.625 34.9141 712.355 35.2031C712.074 35.5078 711.756 35.7383 711.4 35.8945C711.045 36.0508 710.664 36.1289 710.258 36.1289C709.883 36.1289 709.564 36.0879 709.303 36.0059C709.041 35.9277 708.773 35.8164 708.5 35.6719V38.4141H706.391V29.4199H708.5V30.1055C708.824 29.8477 709.154 29.6387 709.49 29.4785C709.83 29.3184 710.221 29.2383 710.662 29.2383C711.482 29.2383 712.119 29.5391 712.572 30.1406C713.029 30.7422 713.258 31.5684 713.258 32.6191ZM711.084 32.6602C711.084 32.0195 710.975 31.5547 710.756 31.2656C710.537 30.9766 710.191 30.832 709.719 30.832C709.52 30.832 709.314 30.8633 709.104 30.9258C708.893 30.9844 708.691 31.0703 708.5 31.1836V34.4941C708.641 34.5488 708.791 34.584 708.951 34.5996C709.111 34.6152 709.27 34.623 709.426 34.623C709.984 34.623 710.4 34.4609 710.674 34.1367C710.947 33.8086 711.084 33.3164 711.084 32.6602ZM717.049 36H714.857V33.6973H717.049V36ZM730.08 37.6289H728.199V35.9766H724.32V37.6289H722.439V34.5293H722.984C723.281 33.9121 723.518 33.1582 723.693 32.2676C723.873 31.373 723.963 30.4238 723.963 29.4199H729.4V34.5293H730.08V37.6289ZM727.303 34.5293V30.8906H725.855C725.789 31.6133 725.676 32.2852 725.516 32.9062C725.359 33.5273 725.17 34.0684 724.947 34.5293H727.303ZM738.242 32.7129C738.242 33.7949 737.926 34.6484 737.293 35.2734C736.664 35.8945 735.779 36.2051 734.639 36.2051C733.498 36.2051 732.611 35.8945 731.979 35.2734C731.35 34.6484 731.035 33.7949 731.035 32.7129C731.035 31.623 731.352 30.7676 731.984 30.1465C732.621 29.5254 733.506 29.2148 734.639 29.2148C735.787 29.2148 736.674 29.5273 737.299 30.1523C737.928 30.7773 738.242 31.6309 738.242 32.7129ZM735.646 34.3125C735.783 34.1445 735.885 33.9434 735.951 33.709C736.021 33.4707 736.057 33.1426 736.057 32.7246C736.057 32.3379 736.021 32.0137 735.951 31.752C735.881 31.4902 735.783 31.2812 735.658 31.125C735.533 30.9648 735.383 30.8516 735.207 30.7852C735.031 30.7188 734.842 30.6855 734.639 30.6855C734.436 30.6855 734.254 30.7129 734.094 30.7676C733.938 30.8223 733.787 30.9316 733.643 31.0957C733.514 31.248 733.41 31.457 733.332 31.7227C733.258 31.9883 733.221 32.3223 733.221 32.7246C733.221 33.084 733.254 33.3965 733.32 33.6621C733.387 33.9238 733.484 34.1348 733.613 34.2949C733.738 34.4473 733.887 34.5586 734.059 34.6289C734.234 34.6992 734.434 34.7344 734.656 34.7344C734.848 34.7344 735.029 34.7031 735.201 34.6406C735.377 34.5742 735.525 34.4648 735.646 34.3125ZM750.5 36H748.391V33.1934H745.965V36H743.855V29.4199H745.965V31.6875H748.391V29.4199H750.5V36ZM754.76 36H752.568V33.6973H754.76V36ZM767.41 33.0996H762.582C762.613 33.6152 762.809 34.0098 763.168 34.2832C763.531 34.5566 764.064 34.6934 764.768 34.6934C765.213 34.6934 765.645 34.6133 766.062 34.4531C766.48 34.293 766.811 34.1211 767.053 33.9375H767.287V35.6309C766.811 35.8223 766.361 35.9609 765.939 36.0469C765.518 36.1328 765.051 36.1758 764.539 36.1758C763.219 36.1758 762.207 35.8789 761.504 35.2852C760.801 34.6914 760.449 33.8457 760.449 32.748C760.449 31.6621 760.781 30.8027 761.445 30.1699C762.113 29.5332 763.027 29.2148 764.188 29.2148C765.258 29.2148 766.062 29.4863 766.602 30.0293C767.141 30.5684 767.41 31.3457 767.41 32.3613V33.0996ZM765.312 31.8633C765.301 31.4219 765.191 31.0898 764.984 30.8672C764.777 30.6445 764.455 30.5332 764.018 30.5332C763.611 30.5332 763.277 30.6387 763.016 30.8496C762.754 31.0605 762.607 31.3984 762.576 31.8633H765.312ZM771.166 36H768.975V33.6973H771.166V36Z" fill="#EEEEEE"/>
<path d="M1012.36 36H1006.53V34.4766H1008.37V29.8652H1006.53V28.4414C1006.81 28.4414 1007.08 28.4258 1007.34 28.3945C1007.6 28.3594 1007.81 28.3008 1007.98 28.2188C1008.19 28.1211 1008.34 27.9941 1008.44 27.8379C1008.54 27.6816 1008.6 27.4863 1008.62 27.252H1010.56V34.4766H1012.36V36ZM1025.66 33.9902H1024.47V36.0234H1022.32V33.9902H1018.1V32.3379L1022.18 27.2754H1024.47V32.3965H1025.66V33.9902ZM1022.32 32.3965V29.2441L1019.79 32.3965H1022.32ZM1034.01 31.6348C1034.01 32.3691 1033.95 33.0273 1033.81 33.6094C1033.68 34.1875 1033.47 34.6621 1033.19 35.0332C1032.9 35.4121 1032.53 35.6992 1032.08 35.8945C1031.62 36.0859 1031.07 36.1816 1030.4 36.1816C1029.75 36.1816 1029.19 36.084 1028.73 35.8887C1028.27 35.6934 1027.9 35.4043 1027.61 35.0215C1027.32 34.6387 1027.12 34.1641 1026.99 33.5977C1026.86 33.0273 1026.79 32.375 1026.79 31.6406C1026.79 30.8828 1026.86 30.2246 1026.99 29.666C1027.12 29.1074 1027.34 28.6348 1027.62 28.248C1027.91 27.8652 1028.29 27.5781 1028.75 27.3867C1029.21 27.1953 1029.76 27.0996 1030.4 27.0996C1031.07 27.0996 1031.63 27.1992 1032.08 27.3984C1032.54 27.5938 1032.91 27.8867 1033.2 28.2773C1033.48 28.6602 1033.69 29.1328 1033.82 29.6953C1033.95 30.2539 1034.01 30.9004 1034.01 31.6348ZM1031.74 31.6348C1031.74 30.5801 1031.64 29.8301 1031.43 29.3848C1031.23 28.9355 1030.88 28.7109 1030.4 28.7109C1029.92 28.7109 1029.58 28.9355 1029.37 29.3848C1029.16 29.8301 1029.06 30.584 1029.06 31.6465C1029.06 32.6816 1029.17 33.4277 1029.38 33.8848C1029.59 34.3418 1029.93 34.5703 1030.4 34.5703C1030.88 34.5703 1031.22 34.3418 1031.43 33.8848C1031.64 33.4277 1031.74 32.6777 1031.74 31.6348ZM1042.05 36H1036.23V34.4766H1038.07V29.8652H1036.23V28.4414C1036.51 28.4414 1036.78 28.4258 1037.04 28.3945C1037.29 28.3594 1037.51 28.3008 1037.68 28.2188C1037.88 28.1211 1038.04 27.9941 1038.14 27.8379C1038.24 27.6816 1038.3 27.4863 1038.31 27.252H1040.25V34.4766H1042.05V36ZM1055.16 32.6191C1055.16 33.1621 1055.08 33.6562 1054.91 34.1016C1054.75 34.5469 1054.53 34.9141 1054.26 35.2031C1053.98 35.5078 1053.66 35.7383 1053.31 35.8945C1052.95 36.0508 1052.57 36.1289 1052.16 36.1289C1051.79 36.1289 1051.47 36.0879 1051.21 36.0059C1050.95 35.9277 1050.68 35.8164 1050.41 35.6719V38.4141H1048.3V29.4199H1050.41V30.1055C1050.73 29.8477 1051.06 29.6387 1051.4 29.4785C1051.74 29.3184 1052.13 29.2383 1052.57 29.2383C1053.39 29.2383 1054.03 29.5391 1054.48 30.1406C1054.94 30.7422 1055.16 31.5684 1055.16 32.6191ZM1052.99 32.6602C1052.99 32.0195 1052.88 31.5547 1052.66 31.2656C1052.44 30.9766 1052.1 30.832 1051.62 30.832C1051.43 30.832 1051.22 30.8633 1051.01 30.9258C1050.8 30.9844 1050.6 31.0703 1050.41 31.1836V34.4941C1050.55 34.5488 1050.7 34.584 1050.86 34.5996C1051.02 34.6152 1051.18 34.623 1051.33 34.623C1051.89 34.623 1052.31 34.4609 1052.58 34.1367C1052.85 33.8086 1052.99 33.3164 1052.99 32.6602ZM1058.96 36H1056.76V33.6973H1058.96V36Z" fill="#EEEEEE"/>
<path d="M1082.34 99H1079.74L1077.86 96.1289L1075.94 99H1073.46L1076.55 94.6055L1073.52 90.2754H1076.12L1077.93 92.9941L1079.8 90.2754H1082.29L1079.24 94.5176L1082.34 99ZM1091.5 90.2754L1088.32 99H1085.8L1082.62 90.2754H1084.98L1087.09 96.4043L1089.2 90.2754H1091.5ZM1100.17 99.1758C1099.59 99.1758 1099.07 99.1074 1098.59 98.9707C1098.12 98.834 1097.71 98.623 1097.36 98.3379C1097.01 98.0527 1096.74 97.6934 1096.55 97.2598C1096.36 96.8262 1096.26 96.3184 1096.26 95.7363C1096.26 95.123 1096.36 94.5938 1096.56 94.1484C1096.77 93.7031 1097.06 93.334 1097.43 93.041C1097.78 92.7637 1098.19 92.5605 1098.66 92.4316C1099.12 92.3027 1099.6 92.2383 1100.1 92.2383C1100.55 92.2383 1100.97 92.2871 1101.35 92.3848C1101.72 92.4824 1102.08 92.6094 1102.41 92.7656V94.5645H1102.11C1102.03 94.4941 1101.93 94.4121 1101.81 94.3184C1101.7 94.2246 1101.55 94.1328 1101.39 94.043C1101.23 93.957 1101.05 93.8867 1100.86 93.832C1100.67 93.7734 1100.45 93.7441 1100.19 93.7441C1099.63 93.7441 1099.2 93.9238 1098.89 94.2832C1098.59 94.6387 1098.44 95.123 1098.44 95.7363C1098.44 96.3691 1098.59 96.8496 1098.9 97.1777C1099.21 97.5059 1099.66 97.6699 1100.23 97.6699C1100.49 97.6699 1100.73 97.6406 1100.94 97.582C1101.16 97.5195 1101.33 97.4473 1101.47 97.3652C1101.61 97.2871 1101.72 97.2051 1101.83 97.1191C1101.93 97.0332 1102.02 96.9492 1102.11 96.8672H1102.41V98.666C1102.07 98.8223 1101.73 98.9453 1101.36 99.0352C1101 99.1289 1100.61 99.1758 1100.17 99.1758ZM1109.29 93.8496H1107.19V99H1105.08V93.8496H1102.99V92.4199H1109.29V93.8496ZM1112.61 99H1110.42V96.6973H1112.61V99Z" fill="#EEEEEE"/>
<path d="M1124.36 36H1118.53V34.4766H1120.37V29.8652H1118.53V28.4414C1118.81 28.4414 1119.08 28.4258 1119.34 28.3945C1119.6 28.3594 1119.81 28.3008 1119.98 28.2188C1120.19 28.1211 1120.34 27.9941 1120.44 27.8379C1120.54 27.6816 1120.6 27.4863 1120.62 27.252H1122.56V34.4766H1124.36V36ZM1137.35 33.0469C1137.35 33.5 1137.27 33.9219 1137.09 34.3125C1136.93 34.6992 1136.68 35.0312 1136.36 35.3086C1136 35.6055 1135.58 35.8262 1135.11 35.9707C1134.65 36.1113 1134.12 36.1816 1133.52 36.1816C1132.82 36.1777 1132.23 36.1211 1131.74 36.0117C1131.26 35.9062 1130.87 35.7871 1130.57 35.6543V33.7266H1130.81C1131.17 33.9375 1131.55 34.1133 1131.96 34.2539C1132.37 34.3945 1132.78 34.4648 1133.19 34.4648C1133.43 34.4648 1133.7 34.4375 1133.98 34.3828C1134.27 34.3242 1134.5 34.2207 1134.67 34.0723C1134.8 33.9512 1134.9 33.8281 1134.97 33.7031C1135.04 33.5781 1135.07 33.3848 1135.07 33.123C1135.07 32.9199 1135.03 32.7461 1134.93 32.6016C1134.84 32.4531 1134.72 32.334 1134.58 32.2441C1134.37 32.1152 1134.12 32.0312 1133.82 31.9922C1133.52 31.9492 1133.25 31.9277 1133.01 31.9277C1132.66 31.9277 1132.32 31.959 1132 32.0215C1131.68 32.0801 1131.39 32.1387 1131.15 32.1973H1130.89V27.2754H1137.1V28.9453H1133.01V30.3691C1133.13 30.3613 1133.28 30.3555 1133.47 30.3516C1133.65 30.3438 1133.82 30.3398 1133.96 30.3398C1134.44 30.3398 1134.87 30.3867 1135.24 30.4805C1135.62 30.5703 1135.95 30.6973 1136.22 30.8613C1136.58 31.0762 1136.85 31.3613 1137.05 31.7168C1137.25 32.0684 1137.35 32.5117 1137.35 33.0469ZM1146.01 31.6348C1146.01 32.3691 1145.95 33.0273 1145.81 33.6094C1145.68 34.1875 1145.47 34.6621 1145.19 35.0332C1144.9 35.4121 1144.53 35.6992 1144.08 35.8945C1143.62 36.0859 1143.07 36.1816 1142.4 36.1816C1141.75 36.1816 1141.19 36.084 1140.73 35.8887C1140.27 35.6934 1139.9 35.4043 1139.61 35.0215C1139.32 34.6387 1139.12 34.1641 1138.99 33.5977C1138.86 33.0273 1138.79 32.375 1138.79 31.6406C1138.79 30.8828 1138.86 30.2246 1138.99 29.666C1139.12 29.1074 1139.34 28.6348 1139.62 28.248C1139.91 27.8652 1140.29 27.5781 1140.75 27.3867C1141.21 27.1953 1141.76 27.0996 1142.4 27.0996C1143.07 27.0996 1143.63 27.1992 1144.08 27.3984C1144.54 27.5938 1144.91 27.8867 1145.2 28.2773C1145.48 28.6602 1145.69 29.1328 1145.82 29.6953C1145.95 30.2539 1146.01 30.9004 1146.01 31.6348ZM1143.74 31.6348C1143.74 30.5801 1143.64 29.8301 1143.43 29.3848C1143.23 28.9355 1142.88 28.7109 1142.4 28.7109C1141.92 28.7109 1141.58 28.9355 1141.37 29.3848C1141.16 29.8301 1141.06 30.584 1141.06 31.6465C1141.06 32.6816 1141.17 33.4277 1141.38 33.8848C1141.59 34.3418 1141.93 34.5703 1142.4 34.5703C1142.88 34.5703 1143.22 34.3418 1143.43 33.8848C1143.64 33.4277 1143.74 32.6777 1143.74 31.6348ZM1154.54 31.6348C1154.54 32.3691 1154.48 33.0273 1154.34 33.6094C1154.21 34.1875 1154 34.6621 1153.72 35.0332C1153.43 35.4121 1153.06 35.6992 1152.61 35.8945C1152.16 36.0859 1151.6 36.1816 1150.93 36.1816C1150.28 36.1816 1149.72 36.084 1149.26 35.8887C1148.8 35.6934 1148.43 35.4043 1148.14 35.0215C1147.86 34.6387 1147.65 34.1641 1147.52 33.5977C1147.39 33.0273 1147.32 32.375 1147.32 31.6406C1147.32 30.8828 1147.39 30.2246 1147.52 29.666C1147.66 29.1074 1147.87 28.6348 1148.16 28.248C1148.45 27.8652 1148.82 27.5781 1149.28 27.3867C1149.74 27.1953 1150.29 27.0996 1150.93 27.0996C1151.6 27.0996 1152.16 27.1992 1152.62 27.3984C1153.07 27.5938 1153.44 27.8867 1153.73 28.2773C1154.01 28.6602 1154.22 29.1328 1154.35 29.6953C1154.48 30.2539 1154.54 30.9004 1154.54 31.6348ZM1152.28 31.6348C1152.28 30.5801 1152.17 29.8301 1151.96 29.3848C1151.76 28.9355 1151.41 28.7109 1150.93 28.7109C1150.45 28.7109 1150.11 28.9355 1149.9 29.3848C1149.7 29.8301 1149.59 30.584 1149.59 31.6465C1149.59 32.6816 1149.7 33.4277 1149.91 33.8848C1150.12 34.3418 1150.46 34.5703 1150.93 34.5703C1151.41 34.5703 1151.75 34.3418 1151.96 33.8848C1152.17 33.4277 1152.28 32.6777 1152.28 31.6348ZM1167.16 32.6191C1167.16 33.1621 1167.08 33.6562 1166.91 34.1016C1166.75 34.5469 1166.53 34.9141 1166.26 35.2031C1165.98 35.5078 1165.66 35.7383 1165.31 35.8945C1164.95 36.0508 1164.57 36.1289 1164.16 36.1289C1163.79 36.1289 1163.47 36.0879 1163.21 36.0059C1162.95 35.9277 1162.68 35.8164 1162.41 35.6719V38.4141H1160.3V29.4199H1162.41V30.1055C1162.73 29.8477 1163.06 29.6387 1163.4 29.4785C1163.74 29.3184 1164.13 29.2383 1164.57 29.2383C1165.39 29.2383 1166.03 29.5391 1166.48 30.1406C1166.94 30.7422 1167.16 31.5684 1167.16 32.6191ZM1164.99 32.6602C1164.99 32.0195 1164.88 31.5547 1164.66 31.2656C1164.44 30.9766 1164.1 30.832 1163.62 30.832C1163.43 30.832 1163.22 30.8633 1163.01 30.9258C1162.8 30.9844 1162.6 31.0703 1162.41 31.1836V34.4941C1162.55 34.5488 1162.7 34.584 1162.86 34.5996C1163.02 34.6152 1163.18 34.623 1163.33 34.623C1163.89 34.623 1164.31 34.4609 1164.58 34.1367C1164.85 33.8086 1164.99 33.3164 1164.99 32.6602ZM1170.96 36H1168.76V33.6973H1170.96V36Z" fill="#EEEEEE"/>
<path d="M796.703 36H790.879V34.4766H792.719V29.8652H790.879V28.4414C791.16 28.4414 791.43 28.4258 791.688 28.3945C791.945 28.3594 792.16 28.3008 792.332 28.2188C792.535 28.1211 792.688 27.9941 792.789 27.8379C792.891 27.6816 792.949 27.4863 792.965 27.252H794.904V34.4766H796.703V36ZM809.816 32.6191C809.816 33.1621 809.732 33.6562 809.564 34.1016C809.4 34.5469 809.184 34.9141 808.914 35.2031C808.633 35.5078 808.314 35.7383 807.959 35.8945C807.604 36.0508 807.223 36.1289 806.816 36.1289C806.441 36.1289 806.123 36.0879 805.861 36.0059C805.6 35.9277 805.332 35.8164 805.059 35.6719V38.4141H802.949V29.4199H805.059V30.1055C805.383 29.8477 805.713 29.6387 806.049 29.4785C806.389 29.3184 806.779 29.2383 807.221 29.2383C808.041 29.2383 808.678 29.5391 809.131 30.1406C809.588 30.7422 809.816 31.5684 809.816 32.6191ZM807.643 32.6602C807.643 32.0195 807.533 31.5547 807.314 31.2656C807.096 30.9766 806.75 30.832 806.277 30.832C806.078 30.832 805.873 30.8633 805.662 30.9258C805.451 30.9844 805.25 31.0703 805.059 31.1836V34.4941C805.199 34.5488 805.35 34.584 805.51 34.5996C805.67 34.6152 805.828 34.623 805.984 34.623C806.543 34.623 806.959 34.4609 807.232 34.1367C807.506 33.8086 807.643 33.3164 807.643 32.6602ZM813.607 36H811.416V33.6973H813.607V36Z" fill="#EEEEEE"/>
<line x1="769" y1="66" x2="769" y2="61" stroke="#C4C4C4" stroke-width="14"/>
</svg>
